<svg width="481" height="481" viewBox="0 0 481 481" fill="none" xmlns="http://www.w3.org/2000/svg">
<g clip-path="url(#clip0)">
<path d="M240.418 481C208.044 481 176.493 474.591 146.749 462.102C118.155 449.941 92.3546 432.687 70.3341 410.502C48.3136 388.317 30.8944 362.681 18.7339 334.087C6.24463 304.508 -0.164316 272.956 -0.164316 240.418C-0.164316 208.045 6.24463 176.493 18.7339 146.749C30.8944 118.155 48.1493 92.3549 70.3341 70.3344C92.3546 48.3139 118.155 30.8947 146.749 18.7341C176.328 6.24489 207.88 -0.164062 240.418 -0.164062C272.791 -0.164062 304.343 6.24489 334.087 18.7341C362.681 30.8947 388.481 48.1496 410.502 70.3344C432.522 92.3549 449.941 118.155 462.102 146.749C474.591 176.329 481 207.88 481 240.418C481 272.792 474.591 304.343 462.102 334.087C449.941 362.681 432.686 388.481 410.502 410.502C388.481 432.522 362.681 449.941 334.087 462.102C304.507 474.591 272.956 481 240.418 481ZM240.418 43.2196C131.63 43.2196 43.2194 131.63 43.2194 240.418C43.2194 349.206 131.63 437.617 240.418 437.617C349.206 437.617 437.616 349.206 437.616 240.418C437.781 131.795 349.206 43.2196 240.418 43.2196Z" fill="#EDEDED"/>
<path d="M377.337 71.9693L72.0287 377.278L103.691 408.941L409 103.632L377.337 71.9693Z" fill="#EDEDED"/>
</g>
<g clip-path="url(#clip1)">
<path d="M314.004 287.437C314.367 290.024 314.973 292.57 315.78 294.996L312.027 298.189L315.215 305.141L320.057 304.413C321.389 306.636 322.882 308.738 324.577 310.679L322.358 315.084L327.927 320.298L332.124 317.752C334.222 319.288 336.361 320.662 338.702 321.834L338.339 326.725L345.481 329.393L348.387 325.432C350.849 326.038 353.391 326.483 356.014 326.685L357.507 331.374L365.135 331.131L366.305 326.362C368.888 325.957 371.43 325.391 373.851 324.583L377.04 328.302L383.981 325.149L383.254 320.298C385.474 318.965 387.572 317.429 389.509 315.771L393.868 318.035L399.074 312.457L396.531 308.213C398.065 306.151 399.437 303.928 400.607 301.624L405.49 302.029L408.194 294.874L404.239 291.964C404.845 289.498 405.289 286.952 405.49 284.325L410.172 282.789L409.929 275.19L405.167 273.977C404.804 271.39 404.199 268.844 403.392 266.419L407.145 263.225L403.997 256.273L399.154 257.001C397.823 254.778 396.33 252.676 394.635 250.736L396.895 246.33L391.325 241.116L387.128 243.662C385.07 242.126 382.851 240.752 380.551 239.58L380.954 234.689L373.811 232.021L370.865 235.982C368.403 235.376 365.861 234.931 363.238 234.729L361.664 230L354.037 230.243L352.867 235.012C350.284 235.416 347.741 235.982 345.32 236.791L342.132 233.072L335.191 236.225L335.917 241.075C333.698 242.409 331.599 243.945 329.662 245.602L325.304 243.339L320.098 248.917L322.64 253.161C321.107 255.222 319.735 257.445 318.564 259.749L313.681 259.345L310.977 266.499L314.932 269.41C314.327 271.875 313.883 274.462 313.681 277.049L309 278.585L309.242 286.184L314.004 287.437ZM329.42 281.738C328.855 265.044 341.89 251.059 358.557 250.493C375.224 249.927 389.187 262.983 389.752 279.676C390.317 296.37 377.282 310.355 360.615 310.921C343.948 311.487 329.985 298.431 329.42 281.738Z" fill="#EDEDED"/>
<path d="M36.7245 303.469C37.6085 304.109 38.5417 304.699 39.4748 305.191L39.3275 307.257L42.3234 308.388L43.5513 306.716C44.5827 306.962 45.6632 307.159 46.7437 307.257L47.3821 309.225L50.5745 309.126L51.0656 307.109C52.1461 306.962 53.1775 306.716 54.2089 306.372L55.535 307.946L58.4327 306.618L58.138 304.601C59.0712 304.06 59.9552 303.42 60.7901 302.682L62.6073 303.617L64.7683 301.256L63.6878 299.485C64.3263 298.599 64.9157 297.665 65.4068 296.73L67.4696 296.878L68.5992 293.877L66.9293 292.647C67.1749 291.565 67.3713 290.532 67.4205 289.45L69.385 288.81L69.2868 285.613L67.2731 285.121C67.1258 284.038 66.8802 283.005 66.5364 281.972L68.108 280.644L66.782 277.742L64.8174 277.939C64.2772 277.004 63.6387 276.119 62.902 275.282L63.8352 273.413L61.4777 271.248L59.7096 272.331C58.8256 271.691 57.8924 271.101 56.9593 270.609L57.1066 268.543L54.1107 267.412L52.8828 269.084C51.8515 268.838 50.771 268.641 49.6905 268.543L49.052 266.575L45.8596 266.674L45.3685 268.691C44.288 268.838 43.2566 269.084 42.2252 269.428L40.8991 267.854L38.0014 269.182L38.2961 271.248C37.363 271.79 36.4789 272.429 35.644 273.167L33.8268 272.232L31.6658 274.594L32.7463 276.364C32.1078 277.25 31.5184 278.185 31.0273 279.119L28.9645 278.922L27.8349 281.923L29.5048 283.153C29.2592 284.235 29.0628 285.268 28.9645 286.35L27 286.99L27.0982 290.187L29.1119 290.679C29.2592 291.762 29.5048 292.795 29.8486 293.828L28.277 295.156L29.603 298.058L31.6658 297.763C32.206 298.698 32.8445 299.583 33.5812 300.419L32.6481 302.239L35.0055 304.404L36.7245 303.469ZM45.1229 291.22C43.3057 289.499 43.2075 286.596 44.8773 284.776C46.5963 282.956 49.494 282.858 51.3112 284.58C53.1284 286.301 53.2266 289.204 51.5077 291.024C49.8378 292.844 46.9892 292.942 45.1229 291.22Z" fill="#EDEDED"/>
<path d="M133.955 201.532L130.321 196.219C128.553 195.727 126.785 195.039 125.066 194.202L119.86 195.531C119.368 195.678 118.828 195.531 118.484 195.186L109.546 186.824C109.153 186.479 109.006 185.987 109.104 185.446L110.086 180.133C109.153 178.559 108.367 176.838 107.729 175.017L102.179 171.722C101.737 171.476 101.491 170.984 101.442 170.492L101 158.292C101 157.8 101.246 157.308 101.638 157.013L106.943 153.324C107.483 151.553 108.121 149.782 108.956 148.06L107.581 142.895C107.434 142.403 107.581 141.862 107.925 141.518L116.274 132.565C116.618 132.171 117.109 132.024 117.649 132.122L122.954 133.106C124.574 132.171 126.293 131.384 128.062 130.745L131.352 125.186C131.598 124.743 132.089 124.497 132.58 124.448L144.76 124.005C145.251 123.956 145.742 124.251 146.037 124.645L149.721 129.958C151.489 130.499 153.257 131.138 154.976 131.974L160.231 130.646C160.722 130.499 161.262 130.646 161.606 130.991L170.545 139.353C170.938 139.698 171.085 140.19 170.987 140.731L170.005 146.043C170.938 147.618 171.724 149.339 172.362 151.159L177.912 154.455C178.354 154.701 178.599 155.193 178.649 155.685L179.091 167.885C179.091 168.377 178.845 168.868 178.452 169.164L173.148 172.853C172.608 174.722 171.92 176.444 171.134 178.117L172.46 183.331C172.608 183.823 172.46 184.364 172.116 184.708L163.767 193.661C163.423 194.055 162.932 194.202 162.392 194.104L157.088 193.12C155.418 194.055 153.699 194.891 151.98 195.481L148.689 201.04C148.444 201.483 147.953 201.729 147.461 201.778L135.281 202.171H135.232C134.692 202.171 134.201 201.926 133.955 201.532ZM149.622 193.514C149.819 193.219 150.114 192.973 150.457 192.874C152.373 192.235 154.239 191.349 156.007 190.267C156.302 190.07 156.695 190.021 157.039 190.07L162.048 191.005L169.268 183.282L167.991 178.313C167.942 178.067 167.942 177.821 167.991 177.575C168.04 177.477 168.04 177.379 168.089 177.231C168.973 175.46 169.71 173.542 170.299 171.525C170.397 171.181 170.594 170.885 170.889 170.689L175.947 167.196L175.603 156.62L170.299 153.471C170.005 153.275 169.759 153.029 169.661 152.684C168.973 150.717 168.089 148.847 167.107 147.126C167.107 147.076 167.058 147.027 167.058 147.027C166.91 146.732 166.861 146.388 166.91 146.093L167.844 141.026L160.133 133.795L155.123 135.024C154.779 135.123 154.386 135.074 154.092 134.926C152.275 133.991 150.359 133.253 148.444 132.712C148.1 132.614 147.756 132.417 147.56 132.122L144.073 127.055L133.513 127.4L130.37 132.712C130.272 132.909 130.075 133.106 129.879 133.204C129.781 133.253 129.682 133.303 129.584 133.352C127.669 133.991 125.802 134.877 124.034 135.959C123.74 136.156 123.347 136.205 123.003 136.156L117.895 135.172L110.675 142.895L111.952 147.863C112.051 148.208 112.001 148.601 111.854 148.897C110.921 150.717 110.184 152.635 109.644 154.554C109.644 154.603 109.644 154.652 109.595 154.652C109.497 154.947 109.3 155.242 109.006 155.39L103.947 158.882L104.291 169.459L109.595 172.607C109.89 172.804 110.135 173.099 110.233 173.443C110.921 175.411 111.805 177.28 112.787 178.953C112.984 179.248 113.033 179.642 112.984 179.986L112.051 185.053L119.761 192.284L124.722 191.005C125.066 190.907 125.459 190.956 125.753 191.103C127.62 192.038 129.535 192.776 131.5 193.317C131.843 193.415 132.138 193.612 132.334 193.907L135.822 198.974L146.381 198.63L149.622 193.514ZM124.771 179.396C120.4 175.313 117.895 169.803 117.699 163.851C117.257 151.553 126.932 141.173 139.21 140.78C151.489 140.386 161.852 150.028 162.245 162.326C162.687 174.624 153.011 185.003 140.733 185.397C140.487 185.397 140.193 185.397 139.947 185.397C134.299 185.446 128.896 183.331 124.771 179.396ZM139.309 143.781C128.651 144.125 120.302 153.127 120.645 163.802C120.842 168.967 123.003 173.738 126.785 177.28C130.566 180.822 135.478 182.642 140.635 182.495C151.292 182.15 159.642 173.148 159.298 162.474C158.954 152.045 150.359 143.781 139.996 143.781C139.751 143.731 139.554 143.731 139.309 143.781Z" fill="#EDEDED"/>
<path d="M67.1749 200.954L72.1845 199.576L73.5597 194.509L71.5951 192.542L69.4832 196.871L65.1613 198.937L67.1749 200.954Z" fill="#EDEDED"/>
<path d="M66.8311 197.559C65.8979 196.624 65.8979 195.149 66.8311 194.214C67.7642 193.279 69.2377 193.279 70.1708 194.214L67.666 190.426L64.2772 192.148L63.5405 195.69L66.8311 197.559Z" fill="#EDEDED"/>
<path d="M70.6128 198.002L65.5541 199.379L61.8706 195.69L63.2458 190.623L68.3045 189.246L71.988 192.935L70.6128 198.002ZM68.5992 195.936C69.5323 195.001 69.5323 193.525 68.5992 192.591C67.666 191.656 66.1926 191.656 65.2595 192.591C64.3263 193.525 64.3263 195.001 65.2595 195.936C66.1926 196.871 67.666 196.871 68.5992 195.936Z" fill="#EDEDED"/>
<path d="M348.497 283.35L345.796 282.612L345.059 279.906L346.091 278.824L347.22 281.136L349.529 282.268L348.497 283.35Z" fill="#EDEDED"/>
<path d="M348.645 281.529C349.136 281.038 349.136 280.25 348.645 279.759C348.154 279.267 347.368 279.267 346.877 279.759L348.203 277.742L350.02 278.676L350.413 280.595L348.645 281.529Z" fill="#EDEDED"/>
<path d="M346.631 281.776L349.332 282.514L351.297 280.546L350.56 277.84L347.859 277.102L345.894 279.07L346.631 281.776ZM347.712 280.644C347.22 280.152 347.22 279.365 347.712 278.873C348.203 278.381 348.988 278.381 349.48 278.873C349.971 279.365 349.971 280.152 349.48 280.644C348.988 281.185 348.203 281.136 347.712 280.644Z" fill="#EDEDED"/>
<path d="M99.639 303.666H27.6876V261.066L96.201 163.272H151.11V259.491H167.661V303.715H151.11V329.049H99.639V303.666ZM103.764 259.491V221.515L78.9621 259.491H103.764Z" fill="url(#paint0_linear)"/>
<path d="M253.856 157.024C302.331 157.024 322.811 192 322.811 242.422C322.811 293.09 302.331 328.065 253.856 328.065C205.135 328.065 184.9 293.09 184.9 242.422C184.9 192.049 205.135 157.024 253.856 157.024ZM253.856 205.38C237.059 205.38 234.996 221.515 234.996 242.422C234.996 263.623 237.059 279.709 253.856 279.709C270.407 279.709 272.47 263.574 272.47 242.422C272.47 221.515 270.407 205.38 253.856 205.38Z" fill="url(#paint1_linear)"/>
<path d="M356.356 208.627H331.995V160.714H409.889V328.999H356.356V208.627Z" fill="url(#paint2_linear)"/>
<path d="M99.639 297.271H27.6876V254.671L96.201 156.877H151.11V253.097H167.661V297.32H151.11V322.654H99.639V297.271ZM103.764 253.097V215.12L78.9621 253.097H103.764Z" fill="#E0555A"/>
<path d="M253.856 150.63C302.331 150.63 322.811 185.605 322.811 236.027C322.811 286.695 302.331 321.67 253.856 321.67C205.135 321.67 184.9 286.695 184.9 236.027C184.9 185.654 205.135 150.63 253.856 150.63ZM253.856 198.985C237.059 198.985 234.996 215.12 234.996 236.027C234.996 257.229 237.059 273.314 253.856 273.314C270.407 273.314 272.47 257.179 272.47 236.027C272.47 215.12 270.407 198.985 253.856 198.985Z" fill="#E0555A"/>
<path d="M356.356 202.232H331.995V154.319H409.889V322.605H356.356V202.232Z" fill="#E0555A"/>
<path d="M272.47 236.076C272.47 233.272 272.421 230.517 272.322 227.91H166.63C163.536 204.888 147.181 187.327 127.486 187.327C127.241 187.327 127.044 187.327 126.799 187.327C126.553 187.327 126.357 187.327 126.111 187.327C104.157 187.327 86.3783 209.07 86.3783 235.879C86.3783 241.93 87.3115 247.784 88.9813 253.096H103.765V243.947C102.88 241.389 102.438 238.683 102.438 235.83C102.438 229.042 105.14 222.843 109.56 218.318C113.096 208.479 119.481 201.74 126.848 201.396C134.215 201.789 140.6 208.479 144.136 218.318C148.507 222.843 151.257 228.992 151.257 235.83C151.257 236.47 151.208 237.06 151.159 237.699V253.096H164.616C165.549 250.145 166.237 247.046 166.679 243.848H272.371C272.421 241.34 272.47 238.732 272.47 236.076Z" fill="#720C18"/>
<path d="M395.106 227.861H322.615C322.762 230.517 322.811 233.272 322.811 236.027C322.811 238.634 322.762 241.241 322.664 243.799H350.315V260.721H344.077H342.751V270.56H350.364H361.856H363.182V260.721V243.799H368.045V260.721V270.56H379.537H387.15H388.476V260.721H387.15H380.912V243.799H395.204H396.53V236.42V227.861H395.106Z" fill="#720C18"/>
<path d="M211.125 318.956L213.13 320.145C213.381 320.834 213.663 321.459 214.039 322.085L213.694 324.025L216.67 326.81L218.581 326.309C219.208 326.622 219.897 326.904 220.586 327.091L221.902 329L225.975 328.875L227.165 326.872C227.855 326.622 228.513 326.34 229.108 325.965L231.05 326.309L233.838 323.337L233.337 321.428C233.65 320.802 233.901 320.114 234.089 319.426L236 318.111L235.875 314.044L233.87 312.855C233.619 312.166 233.337 311.541 232.961 310.915L233.306 308.975L230.33 306.19L228.419 306.691C227.792 306.378 227.134 306.128 226.445 305.909L225.129 304L221.056 304.125L219.866 306.128C219.177 306.378 218.55 306.66 217.924 307.035L215.981 306.691L213.193 309.663L213.694 311.572C213.381 312.198 213.099 312.855 212.911 313.574L211 314.889L211.125 318.956ZM218.926 316.641C218.832 314.106 220.806 312.01 223.343 311.916C225.881 311.822 227.98 313.793 228.074 316.328C228.168 318.831 226.194 320.959 223.657 321.053C221.119 321.146 218.989 319.175 218.926 316.641Z" fill="#EDEDED"/>
</g>
<path d="M81.528 350.008H70.2V367H81.528V362.752H75.528V360.352H80.808V356.344H75.528V354.256H81.528V350.008ZM92.5119 355.912C92.5119 356.92 91.9839 357.352 90.9759 357.352H88.8639V354.472H90.9759C91.9839 354.472 92.5119 355.048 92.5119 355.912ZM83.5359 350.008V367H88.8639V360.904H88.8879L92.0799 367H97.9359L94.2399 360.496C96.6639 359.704 97.9119 357.808 97.9119 355.576C97.9119 352.456 95.7279 350.008 91.4559 350.008H83.5359ZM108.59 355.912C108.59 356.92 108.062 357.352 107.054 357.352H104.942V354.472H107.054C108.062 354.472 108.59 355.048 108.59 355.912ZM99.6141 350.008V367H104.942V360.904H104.966L108.158 367H114.014L110.318 360.496C112.742 359.704 113.99 357.808 113.99 355.576C113.99 352.456 111.806 350.008 107.534 350.008H99.6141ZM132.684 358.432C132.684 353.32 128.82 349.72 123.972 349.72C119.148 349.72 115.212 353.32 115.212 358.432C115.212 363.544 119.148 367.168 123.972 367.168C128.772 367.168 132.684 363.544 132.684 358.432ZM120.636 358.432C120.636 356.128 121.788 354.64 123.972 354.64C126.108 354.64 127.284 356.128 127.284 358.432C127.284 360.688 126.108 362.2 123.972 362.2C121.788 362.2 120.636 360.688 120.636 358.432ZM143.582 355.912C143.582 356.92 143.054 357.352 142.046 357.352H139.934V354.472H142.046C143.054 354.472 143.582 355.048 143.582 355.912ZM134.606 350.008V367H139.934V360.904H139.958L143.15 367H149.006L145.31 360.496C147.734 359.704 148.982 357.808 148.982 355.576C148.982 352.456 146.798 350.008 142.526 350.008H134.606ZM162.323 367H167.699V364.36H169.427V359.752H167.699V349.72H161.963L154.811 359.92V364.36H162.323V367ZM160.163 359.752L162.755 355.792V359.752H160.163ZM171.229 357.976C171.229 363.256 173.341 366.904 178.429 366.904C183.493 366.904 185.629 363.256 185.629 357.976C185.629 352.72 183.493 349.072 178.429 349.072C173.341 349.072 171.229 352.72 171.229 357.976ZM180.373 357.976C180.373 360.184 180.157 361.864 178.429 361.864C176.677 361.864 176.461 360.184 176.461 357.976C176.461 355.792 176.677 354.112 178.429 354.112C180.157 354.112 180.373 355.792 180.373 357.976ZM189.136 367H194.728V349.456H186.592V354.448H189.136V367ZM206.904 364.576C206.904 363.088 205.728 361.912 203.856 361.912C201.96 361.912 200.784 363.088 200.784 364.576C200.784 366.04 201.96 367.192 203.856 367.192C205.728 367.192 206.904 366.04 206.904 364.576ZM206.904 355.072C206.904 353.584 205.728 352.408 203.856 352.408C201.96 352.408 200.784 353.584 200.784 355.072C200.784 356.536 201.96 357.688 203.856 357.688C205.728 357.688 206.904 356.536 206.904 355.072ZM212.862 359.584C212.862 364.6 215.982 367.168 220.23 367.168C224.478 367.168 227.91 364.6 227.91 359.584V350.008H222.606V359.584C222.606 361.048 221.958 362.128 220.35 362.128C218.742 362.128 218.166 361.048 218.166 359.584V350.008H212.862V359.584ZM241.176 350.008V358.696L235.536 350.008H230.208V367H235.536V358.456L241.176 367H246.504V350.008H241.176ZM260.647 367H266.263L260.071 350.008H253.927L247.711 367H253.303L254.143 364.432H259.807L260.647 367ZM258.511 360.424H255.439L256.975 355.696L258.511 360.424ZM267.377 359.584C267.377 364.6 270.497 367.168 274.745 367.168C278.993 367.168 282.425 364.6 282.425 359.584V350.008H277.121V359.584C277.121 361.048 276.473 362.128 274.865 362.128C273.257 362.128 272.681 361.048 272.681 359.584V350.008H267.377V359.584ZM283.763 354.232H288.227V367H293.555V354.232H298.067V350.008H283.763V354.232ZM309.905 367H315.233V350.008H309.905V356.128H304.841V350.008H299.513V367H304.841V360.376H309.905V367ZM334.622 358.432C334.622 353.32 330.758 349.72 325.91 349.72C321.086 349.72 317.15 353.32 317.15 358.432C317.15 363.544 321.086 367.168 325.91 367.168C330.71 367.168 334.622 363.544 334.622 358.432ZM322.574 358.432C322.574 356.128 323.726 354.64 325.91 354.64C328.046 354.64 329.222 356.128 329.222 358.432C329.222 360.688 328.046 362.2 325.91 362.2C323.726 362.2 322.574 360.688 322.574 358.432ZM345.52 355.912C345.52 356.92 344.992 357.352 343.984 357.352H341.872V354.472H343.984C344.992 354.472 345.52 355.048 345.52 355.912ZM336.544 350.008V367H341.872V360.904H341.896L345.088 367H350.944L347.248 360.496C349.672 359.704 350.92 357.808 350.92 355.576C350.92 352.456 348.736 350.008 344.464 350.008H336.544ZM352.622 367H357.95V350.008H352.622V367ZM373.076 350.008H360.356V354.232H367.076L360.356 362.992V367H373.076V362.752H366.26L373.076 354.016V350.008ZM386.801 350.008H375.473V367H386.801V362.752H380.801V360.352H386.081V356.344H380.801V354.256H386.801V350.008ZM395.889 350.008H388.809V367H395.889C401.313 367 404.721 363.304 404.721 358.456C404.721 353.56 401.313 350.008 395.889 350.008ZM394.137 362.248V354.664H395.409C397.761 354.664 399.321 355.984 399.321 358.456C399.321 360.928 397.761 362.248 395.409 362.248H394.137Z" fill="black"/>
<defs>
<linearGradient id="paint0_linear" x1="27.6922" y1="246.135" x2="167.666" y2="246.135" gradientUnits="userSpaceOnUse">
<stop stop-color="#A1141D"/>
<stop offset="0.3918" stop-color="#9E141D"/>
<stop offset="0.6482" stop-color="#96141D"/>
<stop offset="0.865" stop-color="#87141D"/>
<stop offset="1" stop-color="#79141D"/>
</linearGradient>
<linearGradient id="paint1_linear" x1="184.904" y1="242.567" x2="322.809" y2="242.567" gradientUnits="userSpaceOnUse">
<stop stop-color="#A1141D"/>
<stop offset="0.3918" stop-color="#9E141D"/>
<stop offset="0.6482" stop-color="#96141D"/>
<stop offset="0.865" stop-color="#87141D"/>
<stop offset="1" stop-color="#79141D"/>
</linearGradient>
<linearGradient id="paint2_linear" x1="332.001" y1="244.869" x2="409.917" y2="244.869" gradientUnits="userSpaceOnUse">
<stop stop-color="#A1141D"/>
<stop offset="0.3918" stop-color="#9E141D"/>
<stop offset="0.6482" stop-color="#96141D"/>
<stop offset="0.865" stop-color="#87141D"/>
<stop offset="1" stop-color="#79141D"/>
</linearGradient>
<clipPath id="clip0">
<rect width="481" height="481" fill="white"/>
</clipPath>
<clipPath id="clip1">
<rect width="410" height="207" fill="white" transform="translate(27 122)"/>
</clipPath>
</defs>
</svg>
