<?xml version="1.0" encoding="UTF-8" standalone="no"?>
<svg
   width="817"
   height="459"
   viewBox="0 0 817 459"
   fill="none"
   version="1.1"
   id="svg6"
   sodipodi:docname="favicon.svg"
   inkscape:version="1.4.2 (f4327f4, 2025-05-13)"
   xmlns:inkscape="http://www.inkscape.org/namespaces/inkscape"
   xmlns:sodipodi="http://sodipodi.sourceforge.net/DTD/sodipodi-0.dtd"
   xmlns="http://www.w3.org/2000/svg"
   xmlns:svg="http://www.w3.org/2000/svg">
  <defs
     id="defs6">
    <clipPath
       clipPathUnits="userSpaceOnUse"
       id="clipPath9-31">
      <path
         d="m 200.10932,238.70014 h 55.39241 v 56.9685 h -55.39241 z m 0,0"
         clip-rule="nonzero"
         id="path9-9"
         style="stroke-width:0.320985" />
    </clipPath>
    <clipPath
       id="f1429ecb4a-7-8">
      <path
         d="m 355,242 h 62.30859 v 51 H 355 Z m 0,0"
         clip-rule="nonzero"
         id="path3-6-6" />
    </clipPath>
    <clipPath
       id="c91940b956-5">
      <path
         d="M 501.50781,446 H 1067 V 630 H 501.50781 Z m 0,0"
         clip-rule="nonzero"
         id="path4-1-0" />
    </clipPath>
    <clipPath
       clipPathUnits="userSpaceOnUse"
       id="clipPath9-31-0">
      <path
         d="m 200.10932,238.70014 h 55.39241 v 56.9685 h -55.39241 z m 0,0"
         clip-rule="nonzero"
         id="path9-9-9"
         style="stroke-width:0.320985" />
    </clipPath>
    <clipPath
       id="f1429ecb4a-7-8-4">
      <path
         d="m 355,242 h 62.30859 v 51 H 355 Z m 0,0"
         clip-rule="nonzero"
         id="path3-6-6-8" />
    </clipPath>
    <clipPath
       id="c91940b956-5-8">
      <path
         d="M 501.50781,446 H 1067 V 630 H 501.50781 Z m 0,0"
         clip-rule="nonzero"
         id="path4-1-0-2" />
    </clipPath>
    <clipPath
       clipPathUnits="userSpaceOnUse"
       id="clipPath9-31-4">
      <path
         d="m 200.10932,238.70014 h 55.39241 v 56.9685 h -55.39241 z m 0,0"
         clip-rule="nonzero"
         id="path9-9-5"
         style="stroke-width:0.320985" />
    </clipPath>
    <clipPath
       id="f1429ecb4a-7-8-5">
      <path
         d="m 355,242 h 62.30859 v 51 H 355 Z m 0,0"
         clip-rule="nonzero"
         id="path3-6-6-1" />
    </clipPath>
    <clipPath
       id="c91940b956-5-7">
      <path
         d="M 501.50781,446 H 1067 V 630 H 501.50781 Z m 0,0"
         clip-rule="nonzero"
         id="path4-1-0-1" />
    </clipPath>
    <clipPath
       clipPathUnits="userSpaceOnUse"
       id="clipPath9-31-1">
      <path
         d="m 200.10932,238.70014 h 55.39241 v 56.9685 h -55.39241 z m 0,0"
         clip-rule="nonzero"
         id="path9-9-52"
         style="stroke-width:0.320985" />
    </clipPath>
    <clipPath
       id="f1429ecb4a-7-8-7">
      <path
         d="m 355,242 h 62.30859 v 51 H 355 Z m 0,0"
         clip-rule="nonzero"
         id="path3-6-6-6" />
    </clipPath>
    <clipPath
       id="c91940b956-5-1">
      <path
         d="M 501.50781,446 H 1067 V 630 H 501.50781 Z m 0,0"
         clip-rule="nonzero"
         id="path4-1-0-4" />
    </clipPath>
  </defs>
  <sodipodi:namedview
     id="namedview6"
     pagecolor="#ffffff"
     bordercolor="#cccccc"
     borderopacity="1"
     inkscape:showpageshadow="0"
     inkscape:pageopacity="1"
     inkscape:pagecheckerboard="0"
     inkscape:deskcolor="#d1d1d1"
     inkscape:zoom="0.55099917"
     inkscape:cx="343.01322"
     inkscape:cy="185.11825"
     inkscape:window-width="1440"
     inkscape:window-height="890"
     inkscape:window-x="1913"
     inkscape:window-y="-6"
     inkscape:window-maximized="1"
     inkscape:current-layer="svg6" />
  <g
     id="g1"
     transform="matrix(1.4557137,0,0,1.4557137,111.90897,-91.063718)">
    <path
       fill="#000000"
       d="m 252.76584,290.05015 c -2.26069,0 -4.21167,-0.81124 -5.85295,-2.43371 -1.42939,-1.41058 -2.23686,-3.08071 -2.42118,-5.00912 0.0163,-0.12413 0.0263,-0.25077 0.0263,-0.37991 v -32.58119 c 0,-1.42437 -0.11661,-2.6895 -0.34982,-3.79289 -0.25579,-1.21247 -0.65075,-2.23059 -1.18614,-3.05687 -0.6357,-0.98051 -1.34663,-1.76918 -2.13154,-2.3635 -0.47771,-0.36111 -0.98176,-0.65075 -1.51464,-0.86892 -1.40682,-0.57551 -2.70831,-0.8639 -3.90197,-0.8639 -1.15103,0 -2.43121,0.27835 -3.83803,0.83255 -1.40681,0.55546 -2.63433,1.59991 -3.67878,3.13587 -1.04446,1.53722 -1.56606,3.82047 -1.56606,6.84976 v 36.54836 c 0,0.95669 -0.30092,1.872 -0.90151,2.74342 -0.069,0.0991 -0.14169,0.19936 -0.21817,0.29841 -0.74729,0.9592 -1.71777,1.43942 -2.91143,1.43942 -0.71093,0 -1.36168,-0.20438 -1.94973,-0.61313 -0.29215,-0.20438 -0.5705,-0.45766 -0.83255,-0.7636 -0.78993,-0.91781 -1.18238,-1.9096 -1.18238,-2.97537 v -17.60274 c 0,-1.34037 -0.11912,-2.55409 -0.35484,-3.64117 -0.50781,-2.33843 -1.56355,-4.09131 -3.16345,-5.25613 -0.0401,-0.0301 -0.079,-0.0577 -0.11912,-0.0865 -1.59113,-1.13599 -3.36407,-1.70649 -5.31881,-1.70649 -2.09017,0 -3.96592,0.57677 -5.62852,1.72906 -2.4312,1.70648 -3.64743,4.65176 -3.64743,8.83334 v 13.76222 c 0,0.68209 0.25703,1.28017 0.7686,1.79174 0.51157,0.51157 1.1084,0.76861 1.79049,0.76861 0.72473,0 1.34413,-0.25704 1.8557,-0.76861 0.51156,-0.51157 0.76735,-1.10965 0.76735,-1.79174 V 268.4652 c 0,-1.793 0.2771,-3.06189 0.8313,-3.80918 0.5542,-0.74604 1.16231,-1.20495 1.82309,-1.37547 0.35986,-0.0928 0.66705,-0.1605 0.91907,-0.20313 0.21065,-0.0351 0.38368,-0.0527 0.52035,-0.0527 0.29841,0 0.75607,0.0853 1.37547,0.25579 0.61689,0.17052 1.18363,0.63946 1.6952,1.40807 0.26581,0.39872 0.46141,0.93411 0.5893,1.60743 0.11912,0.62567 0.17805,1.37045 0.17805,2.2331 v 17.66669 c 0,2.21805 0.46894,4.03237 1.40682,5.44044 0.93787,1.40807 2.11147,2.43246 3.51829,3.07317 1.40807,0.63946 2.79357,0.9592 4.15775,0.9592 0.49025,0 0.98678,-0.0464 1.48832,-0.14043 0.85261,-0.15925 1.72027,-0.4539 2.60674,-0.88397 1.18614,-0.57551 2.22056,-1.41684 3.10327,-2.52273 0.16551,-0.20564 0.32475,-0.4213 0.47772,-0.64574 0.98176,-1.43063 1.47201,-3.23241 1.47201,-5.40909 v -36.48441 c 0,-1.62122 0.22444,-2.83745 0.67206,-3.64869 0.44763,-0.80999 0.97926,-1.36544 1.59866,-1.66511 0.51658,-0.24826 0.99681,-0.39371 1.43941,-0.43508 0.0865,-0.009 0.17178,-0.0126 0.25579,-0.0126 0.51157,0 1.0758,0.13917 1.6952,0.41627 0.61689,0.27836 1.15103,0.83256 1.59865,1.66386 0.20814,0.38493 0.36612,0.8639 0.47772,1.43691 0.12914,0.66453 0.19434,1.45571 0.19434,2.37227 V 280.25 c -0.0451,0.46267 -0.0677,0.93412 -0.0677,1.41434 0,3.71138 1.31153,6.89114 3.93457,9.53675 2.62179,2.64687 5.78901,3.96842 9.49914,3.96842 0.72472,0 1.33159,-0.25578 1.82184,-0.76735 0.49025,-0.51282 0.73601,-1.10965 0.73601,-1.793 0,-0.72472 -0.24576,-1.33284 -0.73601,-1.82309 -0.49025,-0.49025 -1.09712,-0.73601 -1.82184,-0.73601 z m 0,0"
       fill-opacity="1"
       fill-rule="nonzero"
       id="path5-2-8"
       style="fill:#d3aa54;fill-opacity:1;stroke-width:0.320985"
       clip-path="url(#clipPath9-31-4)"
       transform="matrix(5.3372041,0,0,5.3372041,-1040.6701,-1206.2784)" />
    <g
       clip-path="url(#f1429ecb4a-7-8-5)"
       id="g6-1-6"
       transform="matrix(1.7131603,0,0,1.7131603,-334.8588,-190.06413)"
       style="fill:#000000">
      <path
         fill="#000000"
         d="m 405.06641,254.90625 c -8.16797,-8.17578 -17.96875,-12.26563 -29.39063,-12.26563 -1.42578,0 -2.82812,0.0625 -4.19922,0.1836 -5.77734,0.51172 -11.09375,2.09765 -15.9414,4.76172 v 20.40625 c 0.41406,-0.48438 0.84765,-0.95703 1.30859,-1.42188 4.05859,-4.11719 8.9375,-6.65234 14.63281,-7.60156 1.10156,-0.1875 2.23828,-0.30859 3.40235,-0.375 5.04687,0 9.89453,1.53125 14.54687,4.58594 5.3125,3.46093 8.76563,7.64843 10.36328,12.5664 0,0.53125 -0.33594,0.79688 -0.99609,0.79688 h -9.36719 c -2.12891,0 -3.98437,0.76562 -5.58203,2.29297 -1.59375,1.52734 -2.39063,3.35937 -2.39063,5.48437 0,2.26172 0.79688,4.1875 2.39063,5.78125 1.59766,1.59375 3.51953,2.39453 5.78125,2.39453 h 19.73047 c 2.25781,0 4.14844,-0.80078 5.67578,-2.39453 1.52734,-1.59375 2.29297,-3.45312 2.29297,-5.58203 0,-11.56641 -4.08594,-21.4375 -12.25781,-29.61328 z m 0,0"
         fill-opacity="1"
         fill-rule="nonzero"
         id="path6-6-0"
         style="fill:#000000" />
    </g>
  </g>
</svg>
